<svg xmlns="http://www.w3.org/2000/svg" xmlns:xlink="http://www.w3.org/1999/xlink" viewBox="0 0 146.4 30.59"><defs><style>.cls-1{isolation:isolate;}.cls-2{fill:#009345;}.cls-3{fill:#231f20;}.cls-4,.cls-5,.cls-6,.cls-9{mix-blend-mode:multiply;}.cls-10,.cls-4{opacity:0.29;}.cls-5,.cls-7{opacity:0.25;}.cls-6{opacity:0.46;}.cls-10,.cls-7{mix-blend-mode:screen;}.cls-8{fill:url(#linear-gradient);}.cls-9{opacity:0.24;}.cls-11{fill:url(#linear-gradient-2);}</style><linearGradient id="linear-gradient" x1="28.12" y1="31.91" x2="5.96" y2="8.42" gradientUnits="userSpaceOnUse"><stop offset="0" stop-color="#92c84d"/><stop offset="1" stop-color="#aed14b"/></linearGradient><linearGradient id="linear-gradient-2" x1="24.39" y1="5.69" x2="3.19" y2="32.34" gradientUnits="userSpaceOnUse"><stop offset="0" stop-color="#a5ce52"/><stop offset="1" stop-color="#21bbba"/></linearGradient></defs><g class="cls-1"><g id="Layer_1" data-name="Layer 1"><polygon class="cls-2" points="143.7 4.84 145.47 4.84 144.59 6.65 143.7 8.46 142.81 6.65 141.93 4.84 143.7 4.84"/><path class="cls-2" d="M41.21,30.15,41,28.34h-.09a5.38,5.38,0,0,1-4.41,2.14,4.1,4.1,0,0,1-4.4-4.14c0-3.48,3.09-5.38,8.66-5.35v-.3c0-1.19-.33-3.33-3.27-3.33a7.18,7.18,0,0,0-3.76,1.07l-.59-1.73a9,9,0,0,1,4.73-1.28c4.41,0,5.48,3,5.48,5.89V26.7a20.08,20.08,0,0,0,.24,3.45Zm-.39-7.35c-2.86-.06-6.1.45-6.1,3.25a2.32,2.32,0,0,0,2.47,2.5,3.59,3.59,0,0,0,3.48-2.41,2.76,2.76,0,0,0,.15-.84Z" transform="translate(-0.8 -2.35)"/><path class="cls-2" d="M47.22,27.48a6.9,6.9,0,0,0,3.45,1c1.9,0,2.8-.95,2.8-2.15s-.75-1.93-2.68-2.64C48.2,22.8,47,21.37,47,19.65c0-2.32,1.87-4.23,5-4.23a7.24,7.24,0,0,1,3.54.89l-.65,1.91a5.61,5.61,0,0,0-3-.83c-1.55,0-2.41.89-2.41,2s.86,1.73,2.74,2.44c2.5.95,3.78,2.2,3.78,4.35,0,2.53-2,4.31-5.39,4.31a8.16,8.16,0,0,1-4-1Z" transform="translate(-0.8 -2.35)"/><path class="cls-2" d="M71.41,26.23c0,1.48,0,2.79.12,3.92H69.21l-.15-2.35H69a5.41,5.41,0,0,1-4.76,2.68c-2.26,0-5-1.25-5-6.31V15.75h2.62v8c0,2.73.83,4.58,3.21,4.58a3.8,3.8,0,0,0,3.46-2.38,3.85,3.85,0,0,0,.24-1.34V15.75h2.61Z" transform="translate(-0.8 -2.35)"/><path class="cls-2" d="M75.76,19.65c0-1.49,0-2.71-.12-3.9h2.29l.12,2.32h.09a5,5,0,0,1,4.52-2.65,4.25,4.25,0,0,1,4.08,2.89h.06a5.92,5.92,0,0,1,1.61-1.88,4.92,4.92,0,0,1,3.18-1c1.91,0,4.74,1.25,4.74,6.25v8.48H93.77V22c0-2.77-1-4.44-3.13-4.44A3.38,3.38,0,0,0,87.55,20a4.23,4.23,0,0,0-.21,1.31v8.89H84.78V21.52c0-2.29-1-4-3-4a3.56,3.56,0,0,0-3.24,2.62,3.62,3.62,0,0,0-.21,1.28v8.69H75.76Z" transform="translate(-0.8 -2.35)"/><path class="cls-2" d="M107.84,30.15V24.89h-9V23.16l8.64-12.35h2.82v12H113v2.06h-2.71v5.26Zm0-7.32V16.37q0-1.52.09-3h-.09c-.59,1.13-1.07,2-1.6,2.86l-4.74,6.57v.06Z" transform="translate(-0.8 -2.35)"/><path class="cls-3" d="M124.84,10.09V30.15h-2.59V10.09Z" transform="translate(-0.8 -2.35)"/><path class="cls-3" d="M133.17,12.3h-6.1V10.09h14.85V12.3h-6.13V30.15h-2.62Z" transform="translate(-0.8 -2.35)"/><path class="cls-2" d="M5.33,7.88.83,31.19a1.47,1.47,0,0,0,2.52,1.28L4.91,30.8,7.59,8.26l-.87-.83A.83.83,0,0,0,5.33,7.88Z" transform="translate(-0.8 -2.35)"/><g class="cls-4"><path class="cls-2" d="M7.59,8.26l-.87-.83,0,0a.9.9,0,0,0-.19.42L2.85,31.29a1.41,1.41,0,0,0,.41,1.26l.09-.08L4.91,30.8Z" transform="translate(-0.8 -2.35)"/></g><path class="cls-2" d="M25.57,3.57l4.49,27.8a1.34,1.34,0,0,1-2.28,1.15L25.27,30,21.87,4.33,23,2.91A1.46,1.46,0,0,1,25.57,3.57Z" transform="translate(-0.8 -2.35)"/><g class="cls-5"><path class="cls-2" d="M23.84,3.57a1.43,1.43,0,0,0-.55-.95,1.67,1.67,0,0,0-.31.29L21.87,4.33,25.27,30l2.27,2.32a1.25,1.25,0,0,0,.13-.8Z" transform="translate(-0.8 -2.35)"/></g><g class="cls-6"><path class="cls-2" d="M6.52,8.36a.82.82,0,0,0-1.33.28L3.74,16.1l1.67-2.9A.89.89,0,0,1,6.82,13l.18.18.47-3.93Z" transform="translate(-0.8 -2.35)"/></g><g class="cls-6"><path class="cls-2" d="M29.82,29.91l-.22-1.36-1.11-6.8h0a2.81,2.81,0,0,1-4.17,1l.75,5.71L27.54,31A1.33,1.33,0,0,0,29.82,29.91Z" transform="translate(-0.8 -2.35)"/></g><path class="cls-2" d="M4.05,14.53l1.65-3a.88.88,0,0,1,1.4-.19L27.78,32.51a1.33,1.33,0,0,0,2.27-1.15l-1.32-8.09h0a2.82,2.82,0,0,1-4.45.78L6.72,7.43a.83.83,0,0,0-1.39.45Z" transform="translate(-0.8 -2.35)"/><g class="cls-5"><path class="cls-2" d="M29.78,29.68A1.39,1.39,0,0,1,28,29.56L7.13,9.19a.92.92,0,0,0-1.42.18l-1,1.72-.66,3.44,1.65-3a.88.88,0,0,1,1.4-.19L27.78,32.51a1.33,1.33,0,0,0,2.27-1.15Z" transform="translate(-0.8 -2.35)"/></g><g class="cls-7"><path class="cls-2" d="M29.78,29.68A1.39,1.39,0,0,1,28,29.56L7.13,9.19a.92.92,0,0,0-1.42.18l-1,1.72" transform="translate(-0.8 -2.35)"/><path class="cls-8" d="M29.78,29.68a1.48,1.48,0,0,1-1,.33,1.64,1.64,0,0,1-1-.51l-1.63-1.44-3.2-2.94c-2.14-1.95-4.21-4-6.29-6S12.49,15.08,10.48,13l-3-3.13c-.25-.25-.48-.59-.72-.69a.74.74,0,0,0-.83.14c-.4.54-.8,1.19-1.21,1.78.34-.66.61-1.29,1-1.95a1.06,1.06,0,0,1,1.15-.32,1.42,1.42,0,0,1,.52.34l.41.36L11,12.45c2.13,2,4.21,4,6.29,6s4.13,4.06,6.13,6.15l3,3.13,1.48,1.59A1.38,1.38,0,0,0,29.78,29.68Z" transform="translate(-0.8 -2.35)"/></g><g class="cls-9"><polygon class="cls-2" points="12.86 11.65 11.06 13.89 15 17.92 17.1 15.66 12.86 11.65"/></g><g class="cls-6"><path class="cls-2" d="M23.26,4.56,22.1,6l1,7.28.79-.85a1.21,1.21,0,0,1,1.77,0l1.66,1.83L26.44,9l-.63-3.93A1.45,1.45,0,0,0,23.26,4.56Z" transform="translate(-0.8 -2.35)"/></g><g class="cls-6"><path class="cls-2" d="M3.65,30.92l1.42-1.53.67-5.63-1.25,1.6a1.36,1.36,0,0,1-2.41-.66l-1,5.12A1.48,1.48,0,0,0,3.65,30.92Z" transform="translate(-0.8 -2.35)"/></g><path class="cls-2" d="M1.78,26.18h0a1.36,1.36,0,0,0,2.42.72L23,2.92a1.45,1.45,0,0,1,2.58.67L27,12.68l-1.66-1.83a1.2,1.2,0,0,0-1.77,0L3.36,32.46A1.48,1.48,0,0,1,.83,31.17Z" transform="translate(-0.8 -2.35)"/><g class="cls-4"><path class="cls-2" d="M26.32,8.36,25.11,6.92a1.13,1.13,0,0,0-1.75,0L3.34,30.1a1.4,1.4,0,0,1-2.27-.17L.83,31.17a1.48,1.48,0,0,0,2.53,1.29L23.57,10.84a1.2,1.2,0,0,1,1.77,0L27,12.68Z" transform="translate(-0.8 -2.35)"/></g><g class="cls-10"><path class="cls-2" d="M26.32,8.36,25.11,6.92a1.13,1.13,0,0,0-1.75,0L3.34,30.1a1.4,1.4,0,0,1-2.27-.17" transform="translate(-0.8 -2.35)"/><path class="cls-11" d="M26.32,8.36l-.81-.85c-.27-.26-.5-.62-.8-.76a1,1,0,0,0-1,.07,4.65,4.65,0,0,0-.71.83l-2.94,3.6c-2,2.4-4,4.74-6,7.11S10,23,8,25.32L4.82,28.75c-.56.56-1,1.13-1.65,1.68A1.41,1.41,0,0,1,2,30.64a1.55,1.55,0,0,1-.91-.71A1.35,1.35,0,0,0,3,30.22c.49-.52,1-1.2,1.44-1.79l2.94-3.6c2-2.4,4-4.74,6-7.11s4.07-4.67,6.15-7l3.15-3.43a5.06,5.06,0,0,1,.88-.83,1.28,1.28,0,0,1,1.27,0,3.73,3.73,0,0,1,.8.9Z" transform="translate(-0.8 -2.35)"/></g><polygon class="cls-2" points="140.66 1.33 142.43 1.33 141.55 3.14 140.66 4.95 139.77 3.14 138.89 1.33 140.66 1.33"/><polygon class="cls-2" points="144.63 0.11 146.4 0.11 145.52 1.92 144.63 3.73 143.75 1.92 142.86 0.11 144.63 0.11"/></g></g></svg>